# xmcd
#
# Track frame offsets:
#	150
#	16589
#	29670
#	43879
#	60747
#	73743
#	88699
#	107412
#	127272
#	141904
#	154672
#	168909
#
# Disc length: 2416 seconds
#
# Revision: 1
# Processed by: cddbd v1.5.2PL0 Copyright (c) Steve Scherf et al.
# Submitted via: audiograbber 1.83.01
#
DISCID=a4096e0c
DTITLE=Delbert and Glen - Blind, Crippled and Crazy
DYEAR=2013
DGENRE=Blues
TTITLE0=Been Around A Long Time
TTITLE1=Whoever Said It Was Easy
TTITLE2=Oughta Know
TTITLE3=World Of Hurt
TTITLE4=More And More, Less And Less
TTITLE5=Just When I Need You The Most
TTITLE6=Somebody To Love You
TTITLE7=Sure Feels Good
TTITLE8=Tell My Mama
TTITLE9=Peace In The Valley
TTITLE10=Good As I Feel Today
TTITLE11=If I Could Be Your Lover
EXTD=
EXTT0=
EXTT1=
EXTT2=
EXTT3=
EXTT4=
EXTT5=
EXTT6=
EXTT7=
EXTT8=
EXTT9=
EXTT10=
EXTT11=
PLAYORDER=
